# xmcd
#
# Track frame offsets:
#       150
#       12216
#       24232
#       46575
#       61797
#       74962
#       95573
#       112966
#       126682
#       140078
#       162073
#       180896
#       202739
#       220911
#
# Disc length: 3143 seconds
#
# Revision: 1
# Processed by: cddbd v1.4PL0 Copyright (c) Steve Scherf et al.
# Submitted via: MusiCat 1.1
#
DISCID=bd0c450e
DTITLE=Jose feliciano - Most Famous Hits Cd 1
DYEAR=1900
DGENRE=
TTITLE0=Pegao
TTITLE1=Rain
TTITLE2=The Last Thing On My Mind
TTITLE3=In My Life
TTITLE4=Don't Let The Sun Cath You Crying
TTITLE5=Hi Heel Sneakers
TTITLE6=Samba Pa Ti
TTITLE7=Chicago And The Man
TTITLE8=La bamba
TTITLE9=Affirmation
TTITLE10=Volverè
TTITLE11=Stay With Me
TTITLE12=Caligornia Dreamin
TTITLE13=Time After time
EXTD=0\n\n\n
EXTT0=
EXTT1=
EXTT2=
EXTT3=
EXTT4=
EXTT5=
EXTT6=
EXTT7=
EXTT8=
EXTT9=
EXTT10=
EXTT11=
EXTT12=
EXTT13=
PLAYORDER=
